<svg xmlns="http://www.w3.org/2000/svg" width="640" height="640"><path d="M64.05 95.963c-8.2 0-16.4 3.125-22.65 9.375-12.5 12.5-12.5 32.799 0 45.299l169.3 169.4-169.3 169.3c-12.5 12.5-12.5 32.8 0 45.3s32.8 12.5 45.3 0l192-192c12.5-12.5 12.5-32.8 0-45.3l-192-192c-6.25-6.25-14.45-9.374-22.65-9.374zm443.448 7.197c-49.503 0-89.635 41.445-89.635 92.567 0 9.835 1.477 19.355 4.227 28.244l-82.149 84.834c-2.291 2.366-3.564 5.575-3.564 8.941v42.076c0 6.995 5.45 12.621 12.223 12.621h40.744c6.773 0 12.222-5.626 12.222-12.62v-21.04h20.372c6.773 0 12.222-5.628 12.222-12.623v-21.037h20.371a12.02 12.02 0 0 0 8.658-3.682l16.96-17.513c8.606 2.84 17.825 4.365 27.35 4.365 49.502 0 89.634-41.445 89.634-92.566 0-51.122-40.132-92.567-89.635-92.567zm20.371 50.492c11.255 0 20.371 9.414 20.371 21.037 0 11.624-9.116 21.038-20.37 21.038-11.256 0-20.372-9.414-20.372-21.038 0-11.623 9.116-21.037 20.371-21.037zM288 480.037c-17.7 0-32 14.3-32 32s14.3 32 32 32h288c17.7 0 32-14.3 32-32s-14.3-32-32-32z" style="display:inline"/></svg>